<?xml version="1.0" encoding="UTF-8"?>
<!DOCTYPE svg PUBLIC "-//W3C//DTD SVG 1.1//EN" "http://www.w3.org/Graphics/SVG/1.1/DTD/svg11.dtd">
<!-- Creator: CorelDRAW -->
<svg xmlns="http://www.w3.org/2000/svg" xml:space="preserve" width="6.25984in" height="3.22835in" version="1.1" style="shape-rendering:geometricPrecision; text-rendering:geometricPrecision; image-rendering:optimizeQuality; fill-rule:evenodd; clip-rule:evenodd"
viewBox="0 0 6259.84 3228.35"
 xmlns:xlink="http://www.w3.org/1999/xlink"
 xmlns:xodm="http://www.corel.com/coreldraw/odm/2003">
 <defs>
  <style type="text/css">
   <![CDATA[
    .fil0 {fill:#221F20}
   ]]>
  </style>
 </defs>
 <g id="Layer_x0020_1">
  <metadata id="CorelCorpID_0Corel-Layer"/>
  <g id="_2498305082848">
   <path class="fil0" d="M2779.63 259.93l0 792.5c-0.7,498.7 1.04,888.81 471,1164.57 157.63,92.5 232.13,81.01 419.75,122.17l4.35 587.34 317.9 0 0.38 -591.31 920.85 -2.54 -4.34 -318.81 -916.56 -7.39c0,-279.15 -31.7,-558.33 89.8,-754.7 127.66,-206.31 315.62,-283.34 561.94,-282.94 392.58,0.65 790.8,-78.04 1013.83,268.7 79.98,124.35 71.74,158.21 94.18,315.37l2.65 1323.19 327.76 0.48 0.45 -1177.75c0,-204.44 13.99,-174.73 -28.29,-357.8 -91.22,-394.96 -476.35,-697.97 -868.35,-702.96 -174.2,-8.33 -545.68,-12.24 -706.63,10.34 -217.82,30.56 -369.94,105.78 -503.01,226.19 -123.98,112.18 -225.65,253.36 -278.43,451.91 -56.07,210.89 -13.74,444 -29.79,679.1 -165.79,12.07 -329.28,-106.37 -398.93,-183.41 -107.24,-118.63 -153.24,-219.53 -163.18,-428.03 -13.02,-273.02 19.38,-1006.2 -5.35,-1179.8 -78.39,18.84 -215.87,6.45 -302.35,6.45 -26.79,11.12 -14.46,-10.45 -19.62,39.12z"/>
   <path class="fil0" d="M1641.98 1076.86l-234.01 -0.3 -1.33 -815.01 -306.93 0.4c-27.88,22.48 -10.14,-18.15 -19.66,39.44l0.57 775.04 -856.09 0.37 -0.5 330.04 856.54 0 1.53 802.18 325.87 -5.1 0.09 -797.08c212.35,0 328,-9.76 484.96,92.78 104.98,68.58 204.41,173.94 248.36,325.49 56.65,195.31 28.24,861.13 28.24,1114.83l322.42 -5.23c0,-224.3 0,-448.59 0,-672.88 0,-229.53 12.41,-411.44 -66.95,-605.89 -96.92,-237.48 -273.59,-413.82 -512.61,-509.41 -93.25,-37.29 -177.27,-44.43 -270.52,-69.68z"/>
  </g>
 </g>
</svg>
